<svg width="4551" height="351" viewBox="0 0 4551 351" fill="none" xmlns="http://www.w3.org/2000/svg">
<path fill-rule="evenodd" clip-rule="evenodd" d="M-0.00683594 0.238281L188.408 13.4171C380.378 26.596 757.208 52.9537 1137.59 97.559C1517.98 143.178 1894.81 208.059 2275.19 221.237C2655.58 234.416 3032.41 194.88 3412.79 182.715C3793.18 169.536 4170.01 182.715 4361.98 188.797L4550.39 194.88V350.998H4361.98C4170.01 350.998 3793.18 350.998 3412.79 350.998C3032.41 350.998 2655.58 350.998 2275.19 350.998C1894.81 350.998 1517.98 350.998 1137.59 350.998C757.208 350.998 380.378 350.998 188.408 350.998H-0.00683594V0.238281Z" fill="#20DF7F" fill-opacity="0.09"/>
<path fill-rule="evenodd" clip-rule="evenodd" d="M-0.00683594 140.542L151.673 168.603C303.353 196.664 606.713 252.785 910.073 238.755C1213.43 224.725 1516.79 140.542 1820.15 84.4207C2123.51 28.2991 2426.87 0.238281 2730.23 0.238281C3033.59 0.238281 3336.95 28.2991 3640.31 77.4055C3943.67 126.512 4247.03 196.664 4398.71 231.74L4550.39 266.816V350.998H4398.71C4247.03 350.998 3943.67 350.998 3640.31 350.998C3336.95 350.998 3033.59 350.998 2730.23 350.998C2426.87 350.998 2123.51 350.998 1820.15 350.998C1516.79 350.998 1213.43 350.998 910.073 350.998C606.713 350.998 303.353 350.998 151.673 350.998H-0.00683594V140.542Z" fill="#E5E5E5" fill-opacity="0.13"/>
</svg>
